<svg xmlns="http://www.w3.org/2000/svg" xmlns:xlink="http://www.w3.org/1999/xlink" width="40" zoomAndPan="magnify" viewBox="0 0 30 30.000001" height="40" preserveAspectRatio="xMidYMid meet" version="1.0"><defs><clipPath id="ba6717c3e7"><path d="M 1.917969 1.4375 L 28.050781 1.4375 L 28.050781 27.566406 L 1.917969 27.566406 Z M 1.917969 1.4375 " clip-rule="nonzero"/></clipPath></defs><g clip-path="url(#ba6717c3e7)"><path fill="#ff3131" d="M 14.996094 1.4375 C 22.1875 1.4375 28.074219 7.320312 28.074219 14.511719 C 28.074219 21.703125 22.1875 27.589844 14.996094 27.589844 C 7.804688 27.589844 1.917969 21.703125 1.917969 14.511719 C 1.917969 7.320312 7.804688 1.4375 14.996094 1.4375 " fill-opacity="1" fill-rule="evenodd"/></g><path fill="#fffffe" d="M 8.585938 14.363281 L 9.222656 14.363281 L 9.222656 17.027344 L 8.566406 17.027344 C 8.167969 17.027344 7.84375 16.707031 7.84375 16.308594 L 7.84375 15.082031 C 7.84375 14.683594 8.167969 14.363281 8.566406 14.363281 L 8.585938 14.363281 " fill-opacity="1" fill-rule="evenodd"/><path fill="#fffffe" d="M 22.148438 15.082031 L 22.148438 16.308594 C 22.148438 16.707031 21.824219 17.027344 21.425781 17.027344 L 20.769531 17.027344 L 20.769531 14.363281 L 21.425781 14.363281 C 21.824219 14.363281 22.148438 14.683594 22.148438 15.082031 " fill-opacity="1" fill-rule="evenodd"/><path fill="#fffffe" d="M 19.886719 12.660156 C 19.929688 13.0625 19.730469 13.453125 19.550781 13.746094 C 19.503906 13.828125 19.296875 14.136719 19.164062 14.324219 C 19.164062 14.320312 19.160156 14.316406 19.160156 14.316406 C 19.019531 14.039062 18.761719 13.523438 18.226562 12.847656 C 18.011719 12.574219 17.914062 12.464844 17.828125 12.382812 C 17.75 12.308594 17.585938 12.15625 17.351562 11.992188 L 17.339844 11.984375 C 17.230469 11.90625 17.125 11.839844 17.019531 11.839844 C 17.003906 11.839844 16.988281 11.839844 16.972656 11.84375 C 16.914062 11.855469 16.867188 11.890625 16.839844 11.9375 C 16.71875 12.136719 16.566406 12.296875 16.386719 12.410156 C 16.042969 12.625 15.6875 12.613281 15.347656 12.605469 L 15.320312 12.605469 C 15.273438 12.605469 14.117188 12.578125 12.84375 12.667969 L 12.785156 12.671875 C 12.316406 12.703125 11.832031 12.734375 11.398438 12.964844 C 10.917969 13.21875 10.695312 13.6875 10.570312 14.140625 C 10.542969 14.003906 10.523438 13.859375 10.511719 13.738281 L 10.511719 13.726562 C 10.414062 12.839844 10.441406 12.265625 10.496094 12.140625 C 10.574219 11.957031 10.808594 11.472656 11.308594 10.988281 C 12.328125 10.003906 14.0625 9.605469 14.398438 9.535156 C 15.058594 9.398438 15.6875 9.347656 16.261719 9.386719 C 16.671875 9.417969 17.011719 9.464844 17.308594 9.542969 C 17.515625 9.59375 17.792969 9.703125 17.953125 9.925781 C 18.023438 10.023438 18.074219 10.140625 18.125 10.261719 C 18.199219 10.429688 18.273438 10.605469 18.414062 10.757812 C 18.550781 10.902344 18.707031 11.011719 18.855469 11.121094 C 18.992188 11.214844 19.121094 11.308594 19.230469 11.417969 C 19.527344 11.722656 19.84375 12.222656 19.886719 12.660156 " fill-opacity="1" fill-rule="evenodd"/><path fill="#fffffe" d="M 16.363281 18.574219 L 16.363281 18.601562 C 16.363281 18.765625 16.226562 18.902344 16.058594 18.902344 L 15.601562 18.902344 C 15.433594 18.902344 15.300781 18.765625 15.300781 18.601562 L 15.300781 18.546875 C 15.300781 18.378906 15.433594 18.242188 15.601562 18.242188 L 16.058594 18.242188 C 16.226562 18.242188 16.363281 18.378906 16.363281 18.546875 L 16.363281 18.574219 " fill-opacity="1" fill-rule="evenodd"/><path fill="#fffffe" d="M 19.097656 14.742188 C 19.839844 14.992188 19.839844 15.800781 19.824219 16.042969 C 19.800781 16.363281 19.699219 16.675781 19.539062 16.917969 C 19.378906 17.164062 19.171875 17.320312 18.957031 17.355469 C 18.894531 17.367188 18.84375 17.414062 18.832031 17.476562 C 18.757812 17.8125 18.667969 18.125 18.554688 18.414062 L 16.664062 18.414062 C 16.601562 18.136719 16.355469 17.929688 16.058594 17.929688 L 15.601562 17.929688 C 15.261719 17.929688 14.984375 18.207031 14.984375 18.546875 L 14.984375 18.601562 C 14.984375 18.941406 15.261719 19.21875 15.601562 19.21875 L 16.058594 19.21875 C 16.355469 19.21875 16.601562 19.007812 16.664062 18.730469 L 18.417969 18.730469 C 18.253906 19.078125 18.054688 19.390625 17.824219 19.664062 C 17.496094 20.050781 17.171875 20.292969 17.050781 20.375 C 16.878906 20.496094 16.472656 20.773438 15.871094 20.914062 C 15.648438 20.96875 15.058594 21.070312 14.347656 20.914062 C 14.09375 20.859375 13.445312 20.671875 12.796875 20.144531 C 12.546875 19.9375 11.929688 19.363281 11.59375 18.425781 C 11.484375 18.125 11.410156 17.75 11.378906 17.515625 C 11.371094 17.453125 11.328125 17.402344 11.265625 17.386719 C 10.753906 17.238281 10.324219 16.757812 10.195312 16.191406 C 10.125 15.871094 10.101562 15.253906 10.714844 14.714844 C 10.757812 14.683594 10.785156 14.636719 10.796875 14.585938 C 10.882812 14.101562 11.046875 13.507812 11.546875 13.242188 C 11.917969 13.042969 12.371094 13.011719 12.804688 12.984375 L 12.867188 12.980469 C 14.125 12.894531 15.300781 12.917969 15.3125 12.921875 L 15.339844 12.921875 C 15.691406 12.929688 16.128906 12.941406 16.550781 12.675781 C 16.75 12.550781 16.921875 12.382812 17.058594 12.175781 C 17.097656 12.199219 17.140625 12.226562 17.160156 12.242188 L 17.171875 12.25 C 17.394531 12.40625 17.554688 12.550781 17.609375 12.609375 C 17.675781 12.671875 17.765625 12.765625 17.980469 13.039062 C 18.496094 13.695312 18.746094 14.191406 18.878906 14.457031 C 18.941406 14.578125 18.976562 14.648438 19.015625 14.691406 C 19.019531 14.695312 19.023438 14.699219 19.027344 14.703125 C 19.027344 14.703125 19.03125 14.707031 19.03125 14.707031 C 19.03125 14.710938 19.035156 14.710938 19.035156 14.710938 C 19.035156 14.710938 19.039062 14.714844 19.039062 14.714844 C 19.058594 14.726562 19.078125 14.738281 19.097656 14.742188 " fill-opacity="1" fill-rule="evenodd"/><path fill="#fffffe" d="M 21.570312 17.332031 L 21.570312 17.679688 C 21.570312 18.257812 21.097656 18.730469 20.519531 18.730469 L 18.761719 18.730469 C 18.777344 18.691406 18.796875 18.652344 18.8125 18.613281 C 18.839844 18.546875 18.863281 18.480469 18.886719 18.414062 L 20.519531 18.414062 C 20.925781 18.414062 21.253906 18.085938 21.253906 17.679688 L 21.253906 17.34375 L 21.425781 17.34375 C 21.476562 17.34375 21.523438 17.339844 21.570312 17.332031 " fill-opacity="1" fill-rule="evenodd"/><path fill="#fffffe" d="M 21.554688 14.054688 C 21.511719 14.050781 21.46875 14.046875 21.425781 14.046875 L 21.238281 14.046875 C 21.105469 12.59375 20.464844 11.226562 19.421875 10.183594 C 18.234375 8.996094 16.664062 8.339844 14.996094 8.339844 C 11.75 8.339844 9.042969 10.835938 8.753906 14.046875 L 8.566406 14.046875 C 8.523438 14.046875 8.480469 14.050781 8.4375 14.054688 C 8.503906 13.265625 8.710938 12.5 9.054688 11.785156 C 9.410156 11.046875 9.890625 10.390625 10.488281 9.824219 C 11.714844 8.664062 13.316406 8.027344 14.996094 8.027344 C 15.882812 8.027344 16.742188 8.203125 17.550781 8.546875 C 18.335938 8.878906 19.039062 9.355469 19.644531 9.960938 C 20.75 11.066406 21.425781 12.515625 21.554688 14.054688 " fill-opacity="1" fill-rule="evenodd"/></svg>