<svg xmlns="http://www.w3.org/2000/svg" xmlns:xlink="http://www.w3.org/1999/xlink" width="40" zoomAndPan="magnify" viewBox="0 0 30 30.000001" height="40" preserveAspectRatio="xMidYMid meet" version="1.0"><defs><clipPath id="a942d368cd"><path d="M 3.386719 20 L 26.613281 20 L 26.613281 28.773438 L 3.386719 28.773438 Z M 3.386719 20 " clip-rule="nonzero"/></clipPath></defs><path fill="#fbd178" d="M 21.058594 16.859375 C 20.894531 17.261719 17.863281 18.859375 17.863281 18.859375 L 15.765625 20.648438 L 13.226562 20.648438 L 11.871094 18.859375 L 9.691406 18.316406 L 8.777344 11.886719 C 8.777344 11.886719 9.855469 7.453125 9.9375 7.394531 C 10.019531 7.34375 17.03125 6.128906 17.113281 6.128906 C 17.195312 6.128906 18.8125 6.234375 19.003906 6.375 C 19.191406 6.507812 21.351562 10.234375 21.351562 10.457031 C 21.351562 10.671875 21.511719 14.234375 21.648438 14.53125 C 21.78125 14.828125 21.214844 16.449219 21.058594 16.859375 Z M 21.058594 16.859375 " fill-opacity="1" fill-rule="nonzero"/><path fill="#000000" d="M 24.675781 18.386719 C 20.96875 20.65625 17.832031 18.863281 17.832031 18.863281 C 20.761719 17.011719 20.433594 12.519531 20.433594 12.519531 C 20.703125 8.722656 18.039062 7.28125 18.039062 7.28125 C 17.792969 8.726562 15.214844 10.132812 13.183594 10.535156 C 11.179688 10.933594 10.390625 11.980469 10.390625 11.980469 C 8.003906 15.421875 11.882812 18.863281 11.882812 18.863281 C 6.503906 20.511719 5.671875 18.441406 5.671875 18.441406 C 8.808594 16.292969 8.179688 13.773438 8.179688 13.773438 C 6.117188 7.011719 9.3125 4.203125 9.3125 4.203125 C 14.15625 -0.976562 18.398438 3.660156 18.398438 3.660156 C 25.066406 3.902344 22.644531 13.75 22.644531 13.75 C 21.894531 16.738281 24.675781 18.386719 24.675781 18.386719 Z M 24.675781 18.386719 " fill-opacity="1" fill-rule="nonzero"/><g clip-path="url(#a942d368cd)"><path fill="#72b0e0" d="M 26.574219 29.011719 L 3.371094 29.011719 C 3.371094 26.613281 4.339844 24.441406 5.914062 22.871094 C 7.476562 21.292969 9.644531 20.324219 12.042969 20.324219 L 17.894531 20.324219 C 22.6875 20.324219 26.574219 24.210938 26.574219 29.011719 Z M 26.574219 29.011719 " fill-opacity="1" fill-rule="nonzero"/></g><path fill="#eec06e" d="M 17.863281 18.859375 L 17.863281 21.445312 C 17.863281 23.128906 16.507812 24.460938 14.871094 24.460938 C 13.214844 24.460938 11.871094 23.109375 11.871094 21.445312 L 11.871094 18.859375 C 13.785156 19.808594 15.78125 19.820312 17.863281 18.859375 Z M 17.863281 18.859375 " fill-opacity="1" fill-rule="nonzero"/><path fill="#ff3131" d="M 22.1875 12.511719 L 21.621094 12.511719 C 21.621094 7.507812 19.078125 4.523438 14.824219 4.523438 C 10.691406 4.523438 8.414062 7.359375 8.414062 12.511719 L 7.84375 12.511719 C 7.84375 7.074219 10.390625 3.953125 14.824219 3.953125 C 19.433594 3.953125 22.1875 7.152344 22.1875 12.511719 Z M 22.1875 12.511719 " fill-opacity="1" fill-rule="nonzero"/><path fill="#ff3131" d="M 22.949219 11.273438 L 21.585938 11.273438 L 21.585938 15.582031 L 22.949219 15.582031 C 23.480469 15.582031 23.90625 15.15625 23.90625 14.628906 L 23.90625 12.230469 C 23.90625 11.703125 23.480469 11.273438 22.949219 11.273438 Z M 22.949219 11.273438 " fill-opacity="1" fill-rule="nonzero"/><path fill="#ff3131" d="M 7.089844 11.273438 C 6.5625 11.273438 6.136719 11.703125 6.136719 12.230469 L 6.136719 14.628906 C 6.136719 15.15625 6.5625 15.582031 7.089844 15.582031 L 8.457031 15.582031 L 8.457031 11.273438 Z M 7.089844 11.273438 " fill-opacity="1" fill-rule="nonzero"/><path fill="#ff3131" d="M 20.246094 17.332031 L 16.378906 17.332031 L 16.378906 16.761719 L 20.246094 16.761719 C 20.980469 16.761719 21.582031 16.164062 21.582031 15.425781 L 21.582031 15.027344 L 22.148438 15.027344 L 22.148438 15.425781 C 22.148438 16.476562 21.296875 17.332031 20.246094 17.332031 Z M 20.246094 17.332031 " fill-opacity="1" fill-rule="nonzero"/><path fill="#ff3131" d="M 16.648438 16.25 L 15.132812 16.25 C 14.695312 16.25 14.335938 16.605469 14.335938 17.046875 C 14.335938 17.484375 14.695312 17.84375 15.132812 17.84375 L 16.648438 17.84375 C 17.089844 17.84375 17.445312 17.484375 17.445312 17.046875 C 17.445312 16.605469 17.089844 16.25 16.648438 16.25 Z M 16.648438 16.25 " fill-opacity="1" fill-rule="nonzero"/></svg>