<svg width="800" height="460" viewBox="0 0 800 460" fill="none" xmlns="http://www.w3.org/2000/svg">
<rect width="800" height="460" fill="#76CDA5"/>
<g clip-path="url(#clip0_20_2396)">
<g filter="url(#filter0_i_20_2396)">
<path d="M1448.04 -40L580.12 192.559C475.774 220.519 383.546 282.079 317.701 367.72L230.445 481.209C164.6 566.85 72.3724 628.41 -31.9739 656.37L-216.05 705.693" stroke="#2EAD72" stroke-width="107.56"/>
</g>
<rect x="383.126" y="45" width="266.808" height="372.605" rx="21.7802" fill="white"/>
<g clip-path="url(#clip1_20_2396)">
<rect x="414.158" y="74.0403" width="204.744" height="204.744" rx="102.372" fill="#FDE6FF"/>
<path d="M543.907 100.497C542.618 100.282 510.401 93.8794 509.054 95.2673C509.038 95.2838 485.271 105.676 485.255 105.693C470.286 117.787 467.114 133.392 467.114 145.089C467.114 164.561 475.648 180.686 475.648 195.035C475.648 198.662 480.332 201.239 480.332 201.239L481.918 206.295L502.008 205.808L529.624 187.79L533.771 175.68L545.228 171.748L554.827 157.018L560.28 138.687C560.28 138.687 545.22 100.711 543.915 100.497H543.907Z" fill="white"/>
<path d="M544.978 198.282V166.196L507.424 204.75L481.568 205.394L481.939 230.252L493.802 259.553L525.515 265.113L544.978 198.282Z" fill="white"/>
<path d="M498.996 239.545L482.887 211.639L475.659 218.207L483.201 241.395L499.293 246.228L498.996 239.545Z" fill="white"/>
<g clip-path="url(#clip2_20_2396)">
<path d="M486.066 247.918L488.564 255.591L515.43 263.677L514.947 252.5L502.694 231.29L486.066 247.918Z" fill="#D0E1FF"/>
</g>
<path d="M560.35 154.432C560.35 153.54 560.036 152.672 559.466 151.995C559.02 151.458 558.467 150.995 557.822 150.714C555.914 149.872 553.824 150.433 552.585 151.904L535.923 171.755V176.1C535.923 178.066 537.517 179.661 539.483 179.661H541.59C544.39 179.661 547.05 178.422 548.851 176.274L555.113 168.806C558.491 164.783 560.342 159.694 560.342 154.44L560.35 154.432Z" fill="white"/>
<path d="M608.127 233.457L566.244 203.668L544.964 181.619V185.725C544.964 193.449 542.247 200.933 537.282 206.848L532.829 212.16L498.225 253.432L484.908 216.836L479.308 210.797L445.438 244.667L424.39 298.785H608.54V243.791L608.127 233.448V233.457Z" fill="#3325A2"/>
<path d="M559.468 151.986C559.774 152.358 560.005 152.779 560.154 153.233C566.804 143.155 569.01 130.359 565.482 118.066C560.088 99.2561 542.939 86.9802 524.302 86.9802C495.613 86.9802 466.386 100.669 472.02 121.784C478.504 118.661 497.298 110.821 509.573 105.749C516.364 102.949 524.162 104.51 529.358 109.698L535.43 115.77C537.569 117.909 538.081 121.792 536.537 124.394C531.754 132.449 530.87 142.75 536.999 151.276C539.552 154.828 539.106 159.718 536.016 162.816L510.317 188.516L508.004 190.829C502.477 196.356 496.108 198.669 489.533 198.669C484.642 198.669 480.991 196.86 478.414 193.283C477.934 192.622 476.332 194.348 475.638 195.034V210.333C475.638 218.041 481.049 223.055 488.756 223.055C491.54 223.055 497.298 223.055 499.784 223.055C502.915 223.055 505.922 221.833 508.161 219.644L533.406 195.051C535.017 193.481 535.933 191.325 535.933 189.07V174.762C535.933 172.804 536.619 170.912 537.883 169.408L552.596 151.879C553.826 150.408 555.925 149.846 557.833 150.689C558.477 150.97 559.022 151.433 559.477 151.97L559.468 151.986Z" fill="#FBD0FF"/>
<path d="M473.887 185.219C471.963 187.508 470.914 190.399 470.914 193.39V199.296L482.413 194.34C485.453 193.026 488.873 192.91 491.995 194.009L507.022 199.296V194.29C507.022 190.217 504.824 186.467 501.264 184.476L496.035 181.551C493.234 179.99 490.079 179.164 486.873 179.164C481.859 179.164 477.109 181.378 473.887 185.219Z" fill="#F8B3FE"/>
</g>
<path d="M432.808 333.565V325.114L425.809 313.236H429.962L434.724 321.542L439.516 313.236H443.64L436.641 325.114V333.565H432.808ZM449.233 333.797C444.761 333.797 441.566 330.603 441.566 326.247C441.566 321.89 444.761 318.696 449.233 318.696C453.676 318.696 456.871 321.89 456.871 326.247C456.871 330.603 453.676 333.797 449.233 333.797ZM449.233 330.719C451.643 330.719 453.27 328.889 453.27 326.247C453.27 323.604 451.643 321.774 449.233 321.774C446.794 321.774 445.167 323.604 445.167 326.247C445.167 328.889 446.794 330.719 449.233 330.719ZM472.872 318.928V333.565H469.3V331.3C468.487 332.897 466.832 333.797 464.741 333.797C461.459 333.797 459.31 331.416 459.31 327.989V318.928H462.853V327.234C462.853 329.238 464.102 330.632 465.902 330.632C467.906 330.632 469.3 329.063 469.3 326.914V318.928H472.872ZM485.102 321.92H482.808C480.542 321.92 479.642 323.865 479.642 326.653V333.565H476.07V318.928H479.642V321.513C480.368 319.654 481.501 318.928 483.388 318.928H485.102V321.92ZM499.465 318.696C503.182 318.696 505.795 320.845 505.795 324.156V333.565H502.282V331.387C501.672 332.839 499.987 333.797 497.896 333.797C494.992 333.797 493.018 331.938 493.018 329.412C493.018 326.566 495.225 324.795 498.506 324.795H501.207C501.933 324.795 502.282 324.388 502.282 323.807C502.282 322.384 501.178 321.368 499.29 321.368C497.403 321.368 496.27 322.558 496.212 323.865H493.018C493.192 320.961 495.66 318.696 499.465 318.696ZM498.739 331.154C500.975 331.154 502.282 329.586 502.282 327.379V327.147H499C497.49 327.147 496.473 327.989 496.473 329.267C496.473 330.399 497.403 331.154 498.739 331.154ZM515.419 333.797C510.86 333.797 507.985 330.428 507.985 326.247C507.985 322.065 510.86 318.696 515.419 318.696C519.107 318.696 522.098 320.903 522.418 324.272H518.875C518.614 322.82 517.191 321.774 515.506 321.774C513.038 321.774 511.702 323.691 511.702 326.247C511.702 328.802 513.067 330.719 515.564 330.719C517.249 330.719 518.555 329.76 518.904 328.308H522.505C522.04 331.503 519.194 333.797 515.419 333.797ZM531.442 333.797C526.883 333.797 524.008 330.428 524.008 326.247C524.008 322.065 526.883 318.696 531.442 318.696C535.13 318.696 538.122 320.903 538.441 324.272H534.898C534.637 322.82 533.214 321.774 531.529 321.774C529.061 321.774 527.725 323.691 527.725 326.247C527.725 328.802 529.09 330.719 531.588 330.719C533.272 330.719 534.579 329.76 534.927 328.308H538.528C538.064 331.503 535.218 333.797 531.442 333.797ZM547.698 333.797C543.226 333.797 540.031 330.603 540.031 326.247C540.031 321.89 543.226 318.696 547.698 318.696C552.141 318.696 555.335 321.89 555.335 326.247C555.335 330.603 552.141 333.797 547.698 333.797ZM547.698 330.719C550.108 330.719 551.734 328.889 551.734 326.247C551.734 323.604 550.108 321.774 547.698 321.774C545.258 321.774 543.632 323.604 543.632 326.247C543.632 328.889 545.258 330.719 547.698 330.719ZM571.337 318.928V333.565H567.765V331.3C566.952 332.897 565.297 333.797 563.206 333.797C559.924 333.797 557.775 331.416 557.775 327.989V318.928H561.318V327.234C561.318 329.238 562.567 330.632 564.367 330.632C566.371 330.632 567.765 329.063 567.765 326.914V318.928H571.337ZM574.535 333.565V318.928H578.107V321.194C578.92 319.596 580.575 318.696 582.666 318.696C585.977 318.696 588.126 321.077 588.126 324.504V333.565H584.554V325.259C584.554 323.255 583.334 321.861 581.505 321.861C579.501 321.861 578.107 323.43 578.107 325.579V333.565H574.535ZM592.642 314.514H596.214V318.928H600.28V321.92H596.214V328.308C596.214 329.789 596.998 330.545 598.334 330.545H600.28V333.565H597.928C594.733 333.565 592.642 331.706 592.642 328.454V321.92H589.767V318.928H592.642V314.514ZM455.52 356.656H459.354V360.634H455.52V356.656ZM455.665 377.565V362.928H459.237V377.565H455.665ZM467.729 377.797C464.186 377.797 461.834 375.822 461.659 372.686H464.912C465.057 374.08 466.131 374.951 467.729 374.951C469.123 374.951 470.052 374.254 470.052 373.383C470.052 370.13 462.037 373.238 462.037 367.052C462.037 364.497 464.273 362.696 467.293 362.696C470.72 362.696 473.072 364.584 473.217 367.43H469.965C469.762 366.065 468.513 365.368 467.38 365.368C466.102 365.368 465.26 365.949 465.26 366.936C465.26 370.101 473.392 366.616 473.392 373.238C473.392 375.997 471.155 377.797 467.729 377.797ZM486.217 377.565L480.874 362.928H484.504L487.901 373.034L491.27 362.928H494.929L489.557 377.565H486.217ZM506.212 372.686H509.696C509.145 375.793 506.415 377.797 502.814 377.797C498.022 377.797 495.351 374.022 495.351 370.188C495.351 366.326 497.732 362.696 502.524 362.696C507.431 362.696 509.638 366.268 509.638 369.753C509.638 370.247 509.609 370.682 509.58 370.973H498.777C499.039 373.325 500.549 374.835 502.814 374.835C504.643 374.835 505.834 374.08 506.212 372.686ZM502.524 365.368C500.52 365.368 499.242 366.413 498.864 368.62H506.066C505.921 366.762 504.643 365.368 502.524 365.368ZM521.133 365.92H518.839C516.573 365.92 515.673 367.865 515.673 370.653V377.565H512.101V362.928H515.673V365.513C516.399 363.654 517.532 362.928 519.419 362.928H521.133V365.92ZM523.045 356.656H526.878V360.634H523.045V356.656ZM523.19 377.565V362.928H526.762V377.565H523.19ZM544.197 362.928V377.565H540.655V365.92H535.34V377.565H531.768V365.92H528.893V362.928H531.768V361.563C531.768 358.601 533.83 356.656 536.996 356.656H539.609V359.676H537.402C536.153 359.676 535.34 360.46 535.34 361.738V362.928H544.197ZM557.344 372.686H560.829C560.277 375.793 557.547 377.797 553.946 377.797C549.155 377.797 546.483 374.022 546.483 370.188C546.483 366.326 548.864 362.696 553.656 362.696C558.564 362.696 560.771 366.268 560.771 369.753C560.771 370.247 560.742 370.682 560.713 370.973H549.91C550.171 373.325 551.681 374.835 553.946 374.835C555.776 374.835 556.967 374.08 557.344 372.686ZM553.656 365.368C551.652 365.368 550.374 366.413 549.997 368.62H557.199C557.054 366.762 555.776 365.368 553.656 365.368ZM569.419 377.797C565.034 377.797 562.45 374.719 562.45 370.247C562.45 365.774 565.034 362.696 569.361 362.696C571.278 362.696 572.817 363.509 573.659 364.7V356.656H577.202V377.565H573.659V375.735C572.817 377.013 571.191 377.797 569.419 377.797ZM569.942 374.719C572.323 374.719 573.891 372.947 573.891 370.247C573.891 367.546 572.323 365.774 569.942 365.774C567.561 365.774 565.992 367.546 565.992 370.247C565.992 372.947 567.561 374.719 569.942 374.719Z" fill="#0D0D19"/>
<rect x="570.249" y="229.975" width="32.0767" height="32.0767" rx="16.0383" fill="#4CBE89"/>
<rect x="570.249" y="229.975" width="32.0767" height="32.0767" rx="16.0383" stroke="white" stroke-width="2.13845"/>
<path d="M594.715 239.812L582.954 251.573L577.607 246.227" stroke="white" stroke-width="2.13845" stroke-linecap="round" stroke-linejoin="round"/>
<rect x="211" y="316" width="72.6008" height="72.6008" rx="36.3004" fill="#FDE6FF"/>
<path fill-rule="evenodd" clip-rule="evenodd" d="M242.439 356.081C245.68 356.082 248.921 356.082 252.162 356.081C253.261 356.081 254.01 356.081 254.664 356.196C257.795 356.748 260.246 359.2 260.798 362.331C260.914 362.985 260.914 363.734 260.913 364.833C260.913 365.072 260.921 365.314 260.879 365.551C260.713 366.49 259.978 367.225 259.038 367.391C258.833 367.427 258.616 367.426 258.508 367.425C251.037 367.385 243.564 367.385 236.094 367.425C235.986 367.426 235.769 367.427 235.563 367.391C234.623 367.225 233.888 366.49 233.722 365.551C233.681 365.314 233.688 365.072 233.688 364.833C233.688 363.734 233.688 362.985 233.803 362.331C234.355 359.2 236.806 356.748 239.937 356.196C240.591 356.081 241.34 356.081 242.439 356.081Z" fill="#76CDA5"/>
<path fill-rule="evenodd" clip-rule="evenodd" d="M238.982 345.494C238.982 340.9 242.706 337.175 247.301 337.175C251.895 337.175 255.619 340.9 255.619 345.494C255.619 350.088 251.895 353.813 247.301 353.813C242.706 353.813 238.982 350.088 238.982 345.494Z" fill="#76CDA5"/>
<rect x="668.084" y="172.121" width="72.6008" height="72.6008" rx="36.3004" fill="#FDE6FF"/>
<path d="M714.728 196.322L694.042 196.322C693.244 196.322 692.556 196.321 691.99 196.368C691.392 196.417 690.797 196.524 690.225 196.816C689.371 197.251 688.677 197.945 688.242 198.799C687.95 199.371 687.842 199.966 687.794 200.564C687.747 201.131 687.747 201.818 687.747 202.616C687.747 203.316 688.315 203.884 689.016 203.884H719.754C720.455 203.884 721.023 203.316 721.023 202.616C721.023 201.818 721.023 201.131 720.976 200.564C720.928 199.966 720.82 199.371 720.528 198.799C720.093 197.945 719.399 197.251 718.545 196.816C717.973 196.524 717.378 196.417 716.78 196.368C716.214 196.321 715.526 196.322 714.728 196.322Z" fill="#76CDA5"/>
<path fill-rule="evenodd" clip-rule="evenodd" d="M688.573 207.074C688.897 206.909 689.32 206.909 690.167 206.909H718.603C719.45 206.909 719.873 206.909 720.197 207.074C720.481 207.219 720.713 207.45 720.858 207.735C721.023 208.059 721.023 208.482 721.023 209.329V214.228C721.023 215.025 721.023 215.713 720.976 216.279C720.928 216.877 720.82 217.472 720.528 218.044C720.093 218.898 719.399 219.592 718.545 220.027C717.973 220.319 717.378 220.427 716.78 220.476C716.214 220.522 715.526 220.522 714.729 220.522L694.041 220.522C693.244 220.522 692.556 220.522 691.99 220.476C691.392 220.427 690.797 220.319 690.225 220.027C689.371 219.592 688.677 218.898 688.242 218.044C687.95 217.472 687.842 216.877 687.794 216.279C687.747 215.713 687.747 215.025 687.747 214.228V209.329C687.747 208.482 687.747 208.059 687.912 207.735C688.057 207.45 688.289 207.219 688.573 207.074ZM695.31 211.447C694.475 211.447 693.797 212.124 693.797 212.959C693.797 213.795 694.475 214.472 695.31 214.472H702.872C703.708 214.472 704.385 213.795 704.385 212.959C704.385 212.124 703.708 211.447 702.872 211.447H695.31Z" fill="#76CDA5"/>
<rect x="247" y="185" width="87.1209" height="87.1209" rx="43.5605" fill="#FDE6FF"/>
<path fill-rule="evenodd" clip-rule="evenodd" d="M299.148 249.483C292.387 247.564 286.007 243.942 280.688 238.623C275.37 233.305 271.748 226.925 269.829 220.163C269.818 220.123 269.806 220.083 269.795 220.044C269.483 218.945 269.241 218.093 269.237 216.924C269.233 215.588 269.668 213.915 270.322 212.751C271.447 210.748 273.863 208.181 275.949 207.126C277.752 206.214 279.881 206.214 281.684 207.126C283.467 208.028 285.454 210.047 286.561 211.75C287.93 213.856 287.93 216.57 286.561 218.676C286.194 219.24 285.671 219.762 285.064 220.368C284.875 220.557 284.667 220.693 284.805 220.981C286.177 223.838 288.048 226.518 290.421 228.891C292.794 231.264 295.474 233.135 298.331 234.506C298.629 234.65 298.746 234.445 298.944 234.248C299.55 233.641 300.072 233.118 300.636 232.751C302.742 231.382 305.456 231.382 307.561 232.751C309.219 233.829 311.291 235.858 312.186 237.628C313.098 239.431 313.098 241.56 312.186 243.362C311.13 245.449 308.564 247.864 306.561 248.989C305.397 249.643 303.723 250.079 302.388 250.075C301.219 250.071 300.367 249.829 299.268 249.517C299.228 249.505 299.189 249.494 299.148 249.483Z" fill="#76CDA5"/>
</g>
<defs>
<filter id="filter0_i_20_2396" x="-229.969" y="-91.9476" width="1691.93" height="860.212" filterUnits="userSpaceOnUse" color-interpolation-filters="sRGB">
<feFlood flood-opacity="0" result="BackgroundImageFix"/>
<feBlend mode="normal" in="SourceGraphic" in2="BackgroundImageFix" result="shape"/>
<feColorMatrix in="SourceAlpha" type="matrix" values="0 0 0 0 0 0 0 0 0 0 0 0 0 0 0 0 0 0 127 0" result="hardAlpha"/>
<feOffset dy="10.6235"/>
<feGaussianBlur stdDeviation="17.7058"/>
<feComposite in2="hardAlpha" operator="arithmetic" k2="-1" k3="1"/>
<feColorMatrix type="matrix" values="0 0 0 0 1 0 0 0 0 0.941667 0 0 0 0 0.987167 0 0 0 1 0"/>
<feBlend mode="normal" in2="shape" result="effect1_innerShadow_20_2396"/>
</filter>
<clipPath id="clip0_20_2396">
<rect width="784" height="444" fill="white" transform="translate(16 16)"/>
</clipPath>
<clipPath id="clip1_20_2396">
<rect x="414.158" y="74.0403" width="204.744" height="204.744" rx="102.372" fill="white"/>
</clipPath>
<clipPath id="clip2_20_2396">
<rect width="29.3642" height="32.3869" fill="white" transform="translate(488.841 227.151)"/>
</clipPath>
</defs>
</svg>
