<svg width="800" height="460" viewBox="0 0 800 460" fill="none" xmlns="http://www.w3.org/2000/svg">
<g clip-path="url(#clip0_20_2393)">
<rect width="800" height="460" fill="#3325A2"/>
<g clip-path="url(#clip1_20_2393)">
<g filter="url(#filter0_i_20_2393)">
<path d="M1448.04 -41L580.12 191.559C475.774 219.519 383.546 281.079 317.701 366.72L230.445 480.209C164.6 565.85 72.3723 627.41 -31.974 655.37L-216.05 704.693" stroke="#2D29E3" stroke-width="107.56"/>
</g>
<rect x="651.616" y="281.762" width="72.6008" height="72.6008" rx="36.3004" fill="#FDF7D3"/>
<path d="M691.868 323.37H695.701V325.403C695.701 327.784 694.395 329.062 692.013 329.062H680.571V325.926C682.575 324.648 683.301 322.935 683.301 320.989C683.301 320.757 683.272 320.553 683.243 320.321H679.903V317.359H682.081C681.704 316.517 681.413 315.617 681.413 314.6C681.413 310.854 684.114 308.502 688.122 308.502C692.129 308.502 694.714 310.97 694.975 314.629H691.171C691.026 312.713 689.748 311.812 688.122 311.812C686.466 311.812 685.218 312.887 685.218 314.803C685.218 315.791 685.537 316.575 685.915 317.359H692.187V320.321H687.076C687.105 320.524 687.134 320.757 687.134 320.989C687.134 322.673 686.205 324.474 685.044 325.723H690.852C691.49 325.723 691.868 325.345 691.868 324.706V323.37Z" fill="#4642FF"/>
<rect x="210" y="327" width="87.1209" height="87.1209" rx="43.5605" fill="#F8B3FE"/>
<path d="M263.842 378.035C263.842 382.587 260.567 385.581 255.616 386.22V389.774L251.343 389.734V386.22C246.192 385.502 242.878 381.868 242.639 376.677H247.71C247.989 379.791 250.066 381.788 253.42 381.788C256.415 381.788 258.491 380.59 258.491 378.114C258.491 372.125 243.477 376.278 243.477 365.576C243.477 361.463 246.632 358.509 251.343 357.91V354.516H255.616V358.029C260.128 358.828 263.043 361.982 263.243 366.415H258.211C257.972 363.979 256.055 362.342 253.1 362.342C250.345 362.342 248.628 363.62 248.628 365.576C248.628 371.765 263.842 367.134 263.842 378.035Z" fill="#4642FF"/>
<rect x="308.577" y="93" width="72.6008" height="72.6008" rx="36.3004" fill="#D0E1FF"/>
<path d="M349.514 134.608H353.347C352.766 138.238 350.53 140.533 346.639 140.533H345.332C341.034 140.533 338.595 138.064 337.927 133.592H335.458V131.124H337.752V130.833V129.439V128.975H335.458V126.477H337.985C338.682 122.121 341.092 119.74 345.332 119.74H346.639C350.443 119.74 352.679 121.947 353.289 125.461H349.398C349.078 124.038 347.946 123.05 346.494 123.05H345.506C343.415 123.05 342.196 124.27 341.789 126.477H347.51V128.975H341.615V131.124H347.51V133.592H341.731C342.138 135.915 343.357 137.193 345.506 137.193H346.494C348.004 137.193 349.194 136.148 349.514 134.608Z" fill="#4642FF"/>
<rect x="118" y="194.641" width="294.953" height="105.271" rx="21.7802" fill="white"/>
<rect x="130.858" y="225.179" width="101.715" height="45.8575" rx="12.8575" fill="#4CBE89"/>
<path d="M144.818 246.325C144.75 242.838 146.955 240.678 150.398 240.678C153.638 240.678 155.888 242.613 155.888 245.56C155.888 247.675 154.65 249.363 152.153 250.6L149.723 251.816C148.823 252.288 147.743 253.053 147.743 254.021H155.888V256.608H144.818L144.795 254.426C144.795 251.883 146.933 250.218 148.44 249.475L150.96 248.215C152.243 247.585 152.895 246.685 152.895 245.538C152.895 244.075 151.928 243.13 150.398 243.13C148.71 243.13 147.765 244.413 147.81 246.325H144.818ZM164.905 256.608V253.278H156.85V250.69L164.635 240.858H167.875V250.69H169.9V253.278H167.875V256.608H164.905ZM159.798 250.69H164.905V244.413L159.798 250.69ZM177.447 256.788C173.532 256.788 171.754 254.088 171.754 249.273V248.193C171.754 243.378 173.532 240.678 177.447 240.678H178.347C182.262 240.678 184.062 243.378 184.062 248.193V249.273C184.062 254.088 182.262 256.788 178.347 256.788H177.447ZM177.582 254.201H178.212C179.99 254.201 181.092 252.828 181.092 250.06V247.405C181.092 244.615 179.99 243.243 178.212 243.243H177.582C175.804 243.243 174.724 244.615 174.724 247.405V250.06C174.724 252.828 175.804 254.201 177.582 254.201ZM185.857 257.486H186.69C187.365 257.486 187.703 256.946 187.703 256.023V253.616H190.448V256.271C190.448 258.408 189.21 259.668 187.095 259.668H185.857V257.486ZM193.093 246.325C193.026 242.838 195.231 240.678 198.673 240.678C201.913 240.678 204.163 242.613 204.163 245.56C204.163 247.675 202.926 249.363 200.428 250.6L197.998 251.816C197.098 252.288 196.018 253.053 196.018 254.021H204.163V256.608H193.093L193.071 254.426C193.071 251.883 195.208 250.218 196.716 249.475L199.236 248.215C200.518 247.585 201.171 246.685 201.171 245.538C201.171 244.075 200.203 243.13 198.673 243.13C196.986 243.13 196.041 244.413 196.086 246.325H193.093ZM211.528 256.788C207.613 256.788 205.835 254.088 205.835 249.273V248.193C205.835 243.378 207.613 240.678 211.528 240.678H212.428C216.343 240.678 218.143 243.378 218.143 248.193V249.273C218.143 254.088 216.343 256.788 212.428 256.788H211.528ZM211.663 254.201H212.293C214.07 254.201 215.173 252.828 215.173 250.06V247.405C215.173 244.615 214.07 243.243 212.293 243.243H211.663C209.885 243.243 208.805 244.615 208.805 247.405V250.06C208.805 252.828 209.885 254.201 211.663 254.201Z" fill="white"/>
<g filter="url(#filter1_d_20_2393)">
<rect x="247.093" y="209.536" width="153.003" height="77.1453" rx="38.5726" fill="white" shape-rendering="crispEdges"/>
<rect x="259.95" y="222.393" width="51.4301" height="51.4302" rx="25.7151" fill="#FDE6FF"/>
<path d="M292.014 249.696H292.026M275.679 238.806V255.746C275.679 257.083 276.762 258.166 278.099 258.166H295.039C296.375 258.166 297.459 257.083 297.459 255.746V243.646C297.459 242.31 296.375 241.226 295.039 241.226H278.099C276.762 241.226 275.679 240.143 275.679 238.806ZM275.679 238.806C275.679 237.47 276.762 236.386 278.099 236.386H292.619M292.619 249.696C292.619 250.03 292.348 250.301 292.014 250.301C291.68 250.301 291.409 250.03 291.409 249.696C291.409 249.362 291.68 249.091 292.014 249.091C292.348 249.091 292.619 249.362 292.619 249.696Z" stroke="#0D0D19" stroke-width="2.36747" stroke-linecap="round" stroke-linejoin="round"/>
<path d="M339.078 238.78H342.911V259.108H339.078V250.367H330.017V259.108H326.184V238.78H330.017V247.028H339.078V238.78ZM353.335 259.341C348.863 259.341 345.669 256.146 345.669 251.79C345.669 247.434 348.863 244.24 353.335 244.24C357.778 244.24 360.973 247.434 360.973 251.79C360.973 256.146 357.778 259.341 353.335 259.341ZM353.335 256.262C355.746 256.262 357.372 254.433 357.372 251.79C357.372 249.148 355.746 247.318 353.335 247.318C350.896 247.318 349.27 249.148 349.27 251.79C349.27 254.433 350.896 256.262 353.335 256.262ZM363.587 259.108V238.199H367.13V259.108H363.587ZM376.716 259.341C372.331 259.341 369.746 256.262 369.746 251.79C369.746 247.318 372.331 244.24 376.658 244.24C378.574 244.24 380.113 245.053 380.956 246.244V238.199H384.498V259.108H380.956V257.279C380.113 258.557 378.487 259.341 376.716 259.341ZM377.238 256.262C379.62 256.262 381.188 254.491 381.188 251.79C381.188 249.089 379.62 247.318 377.238 247.318C374.857 247.318 373.289 249.089 373.289 251.79C373.289 254.491 374.857 256.262 377.238 256.262Z" fill="#0D0D19"/>
</g>
<rect x="442.888" y="134.746" width="313.953" height="104.523" rx="21.7802" fill="white"/>
<rect x="455.746" y="164.91" width="115.715" height="45.8575" rx="12.8575" fill="#4CBE89"/>
<path d="M481.496 188.013V190.376H476.974V194.876H474.611V190.376H470.111V188.013H474.611V183.513H476.974V188.013H481.496ZM484.098 186.056C484.031 182.568 486.236 180.408 489.679 180.408C492.919 180.408 495.169 182.343 495.169 185.291C495.169 187.406 493.931 189.093 491.434 190.331L489.003 191.546C488.103 192.018 487.023 192.783 487.023 193.751H495.169V196.338H484.098L484.076 194.156C484.076 191.613 486.213 189.948 487.721 189.206L490.241 187.946C491.524 187.316 492.176 186.416 492.176 185.268C492.176 183.805 491.209 182.86 489.679 182.86C487.991 182.86 487.046 184.143 487.091 186.056H484.098ZM504.186 196.338V193.008H496.131V190.421L503.916 180.588H507.156V190.421H509.181V193.008H507.156V196.338H504.186ZM499.078 190.421H504.186V184.143L499.078 190.421ZM516.728 196.518C512.813 196.518 511.035 193.818 511.035 189.003V187.923C511.035 183.108 512.813 180.408 516.728 180.408H517.628C521.543 180.408 523.343 183.108 523.343 187.923V189.003C523.343 193.818 521.543 196.518 517.628 196.518H516.728ZM516.863 193.931H517.493C519.27 193.931 520.373 192.558 520.373 189.791V187.136C520.373 184.346 519.27 182.973 517.493 182.973H516.863C515.085 182.973 514.005 184.346 514.005 187.136V189.791C514.005 192.558 515.085 193.931 516.863 193.931ZM525.138 197.216H525.971C526.646 197.216 526.983 196.676 526.983 195.753V193.346H529.728V196.001C529.728 198.138 528.491 199.398 526.376 199.398H525.138V197.216ZM532.374 186.056C532.306 182.568 534.511 180.408 537.954 180.408C541.194 180.408 543.444 182.343 543.444 185.291C543.444 187.406 542.207 189.093 539.709 190.331L537.279 191.546C536.379 192.018 535.299 192.783 535.299 193.751H543.444V196.338H532.374L532.351 194.156C532.351 191.613 534.489 189.948 535.996 189.206L538.516 187.946C539.799 187.316 540.452 186.416 540.452 185.268C540.452 183.805 539.484 182.86 537.954 182.86C536.266 182.86 535.321 184.143 535.366 186.056H532.374ZM550.808 196.518C546.893 196.518 545.116 193.818 545.116 189.003V187.923C545.116 183.108 546.893 180.408 550.808 180.408H551.708C555.623 180.408 557.424 183.108 557.424 187.923V189.003C557.424 193.818 555.623 196.518 551.708 196.518H550.808ZM550.943 193.931H551.573C553.351 193.931 554.453 192.558 554.453 189.791V187.136C554.453 184.346 553.351 182.973 551.573 182.973H550.943C549.166 182.973 548.086 184.346 548.086 187.136V189.791C548.086 192.558 549.166 193.931 550.943 193.931Z" fill="white"/>
<g filter="url(#filter2_d_20_2393)">
<rect x="585.981" y="149.266" width="158.003" height="77.1453" rx="38.5726" fill="white" shape-rendering="crispEdges"/>
<rect x="598.839" y="162.124" width="51.4301" height="51.4302" rx="25.7151" fill="#FDE6FF"/>
<path d="M621.189 189.709L633.894 177.004M621.343 190.106L624.523 198.284C624.803 199.004 624.943 199.364 625.145 199.469C625.32 199.56 625.529 199.561 625.704 199.47C625.906 199.365 626.046 199.005 626.327 198.285L634.302 177.85C634.555 177.2 634.682 176.875 634.613 176.668C634.552 176.487 634.411 176.346 634.231 176.285C634.023 176.216 633.698 176.343 633.048 176.597L612.613 184.571C611.893 184.852 611.533 184.992 611.428 185.194C611.338 185.369 611.338 185.578 611.429 185.753C611.534 185.955 611.894 186.095 612.615 186.375L620.792 189.555C620.938 189.612 621.011 189.64 621.073 189.684C621.127 189.723 621.175 189.771 621.214 189.825C621.258 189.887 621.286 189.96 621.343 190.106Z" stroke="black" stroke-width="2.41079" stroke-linecap="round" stroke-linejoin="round"/>
<path d="M671.751 199.071C667.134 199.071 664.114 196.283 663.911 192.014H667.599C667.802 194.279 669.312 195.731 671.751 195.731C673.929 195.731 675.44 194.86 675.44 193.059C675.44 188.703 664.52 191.724 664.52 183.941C664.52 180.601 667.395 178.278 671.519 178.278C675.817 178.278 678.721 180.746 678.895 184.551H675.236C675.062 182.779 673.668 181.588 671.519 181.588C669.515 181.588 668.267 182.518 668.267 183.941C668.267 188.442 679.331 185.073 679.331 193.001C679.331 196.777 676.224 199.071 671.751 199.071ZM691.816 193.96H695.301C694.75 197.067 692.02 199.071 688.419 199.071C683.627 199.071 680.955 195.295 680.955 191.462C680.955 187.6 683.337 183.97 688.128 183.97C693.036 183.97 695.243 187.542 695.243 191.027C695.243 191.52 695.214 191.956 695.185 192.246H684.382C684.644 194.598 686.154 196.109 688.419 196.109C690.248 196.109 691.439 195.354 691.816 193.96ZM688.128 186.641C686.125 186.641 684.847 187.687 684.469 189.894H691.671C691.526 188.035 690.248 186.641 688.128 186.641ZM697.706 198.838V184.202H701.278V186.467C702.091 184.87 703.746 183.97 705.837 183.97C709.148 183.97 711.297 186.351 711.297 189.778V198.838H707.725V190.533C707.725 188.529 706.505 187.135 704.676 187.135C702.672 187.135 701.278 188.703 701.278 190.852V198.838H697.706ZM720.681 199.071C716.295 199.071 713.711 195.992 713.711 191.52C713.711 187.048 716.295 183.97 720.622 183.97C722.539 183.97 724.078 184.783 724.92 185.974V177.929H728.463V198.838H724.92V197.009C724.078 198.287 722.452 199.071 720.681 199.071ZM721.203 195.992C723.585 195.992 725.153 194.221 725.153 191.52C725.153 188.819 723.585 187.048 721.203 187.048C718.822 187.048 717.254 188.819 717.254 191.52C717.254 194.221 718.822 195.992 721.203 195.992Z" fill="#0D0D19"/>
</g>
<rect x="377.548" y="321.693" width="233.096" height="105.271" rx="21.7802" fill="white"/>
<g filter="url(#filter3_d_20_2393)">
<rect x="390.405" y="336.587" width="77.1452" height="77.1453" rx="38.5726" fill="white" shape-rendering="crispEdges"/>
<rect x="403.263" y="349.445" width="51.4301" height="51.4302" rx="25.7151" fill="#FDE6FF"/>
<path d="M438.041 368.883L424.73 382.193L418.68 376.143" stroke="black" stroke-width="3.21439" stroke-linecap="round" stroke-linejoin="round"/>
</g>
<rect x="482.071" y="352.231" width="115.715" height="45.8575" rx="12.8575" fill="#4CBE89"/>
<path d="M507.821 375.334V377.697H503.298V382.197H500.936V377.697H496.436V375.334H500.936V370.834H503.298V375.334H507.821ZM510.423 373.377C510.356 369.889 512.561 367.729 516.003 367.729C519.243 367.729 521.493 369.664 521.493 372.612C521.493 374.727 520.256 376.414 517.758 377.652L515.328 378.867C514.428 379.339 513.348 380.104 513.348 381.072H521.493V383.659H510.423L510.401 381.477C510.401 378.934 512.538 377.269 514.046 376.527L516.566 375.267C517.848 374.637 518.501 373.737 518.501 372.589C518.501 371.127 517.533 370.182 516.003 370.182C514.316 370.182 513.371 371.464 513.416 373.377H510.423ZM530.511 383.659V380.329H522.455V377.742L530.241 367.909H533.481V377.742H535.506V380.329H533.481V383.659H530.511ZM525.403 377.742H530.511V371.464L525.403 377.742ZM543.052 383.839C539.137 383.839 537.36 381.139 537.36 376.324V375.244C537.36 370.429 539.137 367.729 543.052 367.729H543.952C547.868 367.729 549.668 370.429 549.668 375.244V376.324C549.668 381.139 547.868 383.839 543.952 383.839H543.052ZM543.187 381.252H543.817C545.595 381.252 546.698 379.879 546.698 377.112V374.457C546.698 371.667 545.595 370.294 543.817 370.294H543.187C541.41 370.294 540.33 371.667 540.33 374.457V377.112C540.33 379.879 541.41 381.252 543.187 381.252ZM551.463 384.537H552.295C552.97 384.537 553.308 383.997 553.308 383.074V380.667H556.053V383.322C556.053 385.459 554.816 386.72 552.7 386.72H551.463V384.537ZM558.698 373.377C558.631 369.889 560.836 367.729 564.279 367.729C567.519 367.729 569.769 369.664 569.769 372.612C569.769 374.727 568.531 376.414 566.034 377.652L563.604 378.867C562.704 379.339 561.624 380.104 561.624 381.072H569.769V383.659H558.698L558.676 381.477C558.676 378.934 560.814 377.269 562.321 376.527L564.841 375.267C566.124 374.637 566.776 373.737 566.776 372.589C566.776 371.127 565.809 370.182 564.279 370.182C562.591 370.182 561.646 371.464 561.691 373.377H558.698ZM577.133 383.839C573.218 383.839 571.44 381.139 571.44 376.324V375.244C571.44 370.429 573.218 367.729 577.133 367.729H578.033C581.948 367.729 583.748 370.429 583.748 375.244V376.324C583.748 381.139 581.948 383.839 578.033 383.839H577.133ZM577.268 381.252H577.898C579.676 381.252 580.778 379.879 580.778 377.112V374.457C580.778 371.667 579.676 370.294 577.898 370.294H577.268C575.491 370.294 574.41 371.667 574.41 374.457V377.112C574.41 379.879 575.491 381.252 577.268 381.252Z" fill="white"/>
</g>
</g>
<defs>
<filter id="filter0_i_20_2393" x="-229.969" y="-92.9475" width="1691.93" height="860.211" filterUnits="userSpaceOnUse" color-interpolation-filters="sRGB">
<feFlood flood-opacity="0" result="BackgroundImageFix"/>
<feBlend mode="normal" in="SourceGraphic" in2="BackgroundImageFix" result="shape"/>
<feColorMatrix in="SourceAlpha" type="matrix" values="0 0 0 0 0 0 0 0 0 0 0 0 0 0 0 0 0 0 127 0" result="hardAlpha"/>
<feOffset dy="10.6235"/>
<feGaussianBlur stdDeviation="17.7058"/>
<feComposite in2="hardAlpha" operator="arithmetic" k2="-1" k3="1"/>
<feColorMatrix type="matrix" values="0 0 0 0 1 0 0 0 0 0.941667 0 0 0 0 0.987167 0 0 0 1 0"/>
<feBlend mode="normal" in2="shape" result="effect1_innerShadow_20_2393"/>
</filter>
<filter id="filter1_d_20_2393" x="239.18" y="209.536" width="168.829" height="92.9713" filterUnits="userSpaceOnUse" color-interpolation-filters="sRGB">
<feFlood flood-opacity="0" result="BackgroundImageFix"/>
<feColorMatrix in="SourceAlpha" type="matrix" values="0 0 0 0 0 0 0 0 0 0 0 0 0 0 0 0 0 0 127 0" result="hardAlpha"/>
<feOffset dy="7.91302"/>
<feGaussianBlur stdDeviation="3.95651"/>
<feComposite in2="hardAlpha" operator="out"/>
<feColorMatrix type="matrix" values="0 0 0 0 0 0 0 0 0 0 0 0 0 0 0 0 0 0 0.15 0"/>
<feBlend mode="normal" in2="BackgroundImageFix" result="effect1_dropShadow_20_2393"/>
<feBlend mode="normal" in="SourceGraphic" in2="effect1_dropShadow_20_2393" result="shape"/>
</filter>
<filter id="filter2_d_20_2393" x="578.068" y="149.266" width="173.829" height="92.9713" filterUnits="userSpaceOnUse" color-interpolation-filters="sRGB">
<feFlood flood-opacity="0" result="BackgroundImageFix"/>
<feColorMatrix in="SourceAlpha" type="matrix" values="0 0 0 0 0 0 0 0 0 0 0 0 0 0 0 0 0 0 127 0" result="hardAlpha"/>
<feOffset dy="7.91302"/>
<feGaussianBlur stdDeviation="3.95651"/>
<feComposite in2="hardAlpha" operator="out"/>
<feColorMatrix type="matrix" values="0 0 0 0 0 0 0 0 0 0 0 0 0 0 0 0 0 0 0.15 0"/>
<feBlend mode="normal" in2="BackgroundImageFix" result="effect1_dropShadow_20_2393"/>
<feBlend mode="normal" in="SourceGraphic" in2="effect1_dropShadow_20_2393" result="shape"/>
</filter>
<filter id="filter3_d_20_2393" x="382.492" y="336.587" width="92.9713" height="92.9713" filterUnits="userSpaceOnUse" color-interpolation-filters="sRGB">
<feFlood flood-opacity="0" result="BackgroundImageFix"/>
<feColorMatrix in="SourceAlpha" type="matrix" values="0 0 0 0 0 0 0 0 0 0 0 0 0 0 0 0 0 0 127 0" result="hardAlpha"/>
<feOffset dy="7.91302"/>
<feGaussianBlur stdDeviation="3.95651"/>
<feComposite in2="hardAlpha" operator="out"/>
<feColorMatrix type="matrix" values="0 0 0 0 0 0 0 0 0 0 0 0 0 0 0 0 0 0 0.15 0"/>
<feBlend mode="normal" in2="BackgroundImageFix" result="effect1_dropShadow_20_2393"/>
<feBlend mode="normal" in="SourceGraphic" in2="effect1_dropShadow_20_2393" result="shape"/>
</filter>
<clipPath id="clip0_20_2393">
<rect width="800" height="460" fill="white"/>
</clipPath>
<clipPath id="clip1_20_2393">
<rect width="784" height="444" fill="white" transform="translate(16 38)"/>
</clipPath>
</defs>
</svg>
