<svg xmlns="http://www.w3.org/2000/svg" xmlns:xlink="http://www.w3.org/1999/xlink" width="40" zoomAndPan="magnify" viewBox="0 0 30 30.000001" height="40" preserveAspectRatio="xMidYMid meet" version="1.0"><defs><g/><clipPath id="c1b69bd78a"><path d="M 1.410156 2.902344 L 28.265625 2.902344 L 28.265625 26.128906 L 1.410156 26.128906 Z M 1.410156 2.902344 " clip-rule="nonzero"/></clipPath></defs><g clip-path="url(#c1b69bd78a)"><path fill="#5e17eb" d="M 12.367188 4.328125 C 6.316406 4.328125 1.410156 9.234375 1.410156 15.285156 C 1.410156 21.335938 6.316406 26.242188 12.367188 26.242188 C 18.417969 26.242188 23.324219 21.335938 23.324219 15.285156 C 23.324219 15.101562 23.320312 14.917969 23.308594 14.734375 C 23.242188 14.734375 23.171875 14.738281 23.105469 14.738281 C 22.5625 14.738281 22.039062 14.667969 21.539062 14.542969 C 21.558594 14.789062 21.570312 15.035156 21.570312 15.285156 C 21.570312 17.492188 20.792969 19.519531 19.496094 21.105469 C 18.382812 18.257812 15.609375 16.238281 12.367188 16.238281 C 9.125 16.238281 6.351562 18.257812 5.238281 21.105469 C 3.941406 19.519531 3.164062 17.492188 3.164062 15.285156 C 3.164062 10.203125 7.285156 6.082031 12.367188 6.082031 C 13.996094 6.082031 15.523438 6.503906 16.851562 7.246094 C 16.957031 6.648438 17.148438 6.082031 17.410156 5.558594 C 15.902344 4.773438 14.1875 4.328125 12.367188 4.328125 Z M 12.367188 8.027344 C 14.503906 8.027344 16.234375 9.757812 16.234375 11.894531 C 16.234375 14.03125 14.503906 15.761719 12.367188 15.761719 C 10.230469 15.761719 8.5 14.03125 8.5 11.894531 C 8.5 9.757812 10.230469 8.027344 12.367188 8.027344 Z M 23.105469 2.902344 C 26.128906 2.902344 28.582031 5.355469 28.582031 8.382812 C 28.582031 11.40625 26.128906 13.859375 23.105469 13.859375 C 20.078125 13.859375 17.625 11.40625 17.625 8.382812 C 17.625 5.355469 20.078125 2.902344 23.105469 2.902344 Z M 22.148438 9.335938 L 20.332031 9.335938 C 19.804688 9.335938 19.378906 8.90625 19.378906 8.382812 C 19.378906 7.855469 19.804688 7.425781 20.332031 7.425781 L 22.148438 7.425781 L 22.148438 5.609375 C 22.148438 5.085938 22.578125 4.65625 23.105469 4.65625 C 23.628906 4.65625 24.058594 5.085938 24.058594 5.609375 L 24.058594 7.429688 L 25.875 7.429688 C 26.402344 7.429688 26.832031 7.855469 26.832031 8.382812 C 26.832031 8.910156 26.402344 9.335938 25.875 9.335938 L 24.058594 9.335938 L 24.058594 11.15625 C 24.058594 11.679688 23.628906 12.109375 23.105469 12.109375 C 22.578125 12.109375 22.148438 11.679688 22.148438 11.15625 Z M 22.148438 9.335938 " fill-opacity="1" fill-rule="evenodd"/></g><g fill="#5e17eb" fill-opacity="1"><g transform="translate(12.767019, 23.050569)"><g><path d="M 0.25 0.015625 C 0.21875 0.015625 0.191406 0.00390625 0.171875 -0.015625 C 0.148438 -0.0351562 0.140625 -0.0625 0.140625 -0.09375 C 0.140625 -0.132812 0.148438 -0.164062 0.171875 -0.1875 C 0.191406 -0.207031 0.21875 -0.21875 0.25 -0.21875 C 0.289062 -0.21875 0.320312 -0.207031 0.34375 -0.1875 C 0.363281 -0.164062 0.375 -0.140625 0.375 -0.109375 C 0.375 -0.0664062 0.363281 -0.0351562 0.34375 -0.015625 C 0.320312 0.00390625 0.289062 0.015625 0.25 0.015625 Z M 0.25 0.015625 "/></g></g></g></svg>